<svg width="212" height="71" viewBox="0 0 212 71" fill="none" xmlns="http://www.w3.org/2000/svg">
<g clip-path="url(#clip0_2_3)">
<path d="M64.8522 36.269C64.8522 37.1439 65.0709 37.9642 65.5084 38.7297C65.9458 39.4953 66.5473 40.0968 67.3129 40.4796C68.0784 40.917 68.8986 41.1358 69.7735 41.1358C71.1953 41.1358 72.3983 40.5889 73.3825 39.55L76.7728 42.7216C75.8979 43.6512 74.8589 44.4168 73.6013 44.9636C72.3983 45.5104 71.0859 45.7838 69.7735 45.7838C67.1488 45.7838 64.9069 44.8542 63.0477 42.995C61.1886 41.1358 60.259 38.8938 60.259 36.269C60.259 33.6442 61.1886 31.4022 63.0477 29.543C64.9069 27.6838 67.1488 26.7542 69.7735 26.7542C71.1406 26.7542 72.3983 27.0276 73.6013 27.5744C74.8042 28.1212 75.8432 28.8868 76.7728 29.8164L73.3825 32.9333C72.3983 31.8944 71.1953 31.3475 69.7735 31.3475C68.4065 31.3475 67.2582 31.8397 66.3286 32.7693C65.2897 33.7536 64.8522 34.9019 64.8522 36.269Z" fill="#031E71"/>
<path d="M77.9758 36.269C77.9758 34.5191 78.4132 32.9333 79.2334 31.5115C80.0537 30.0351 81.2567 28.8868 82.6784 28.0665C84.1548 27.2463 85.7405 26.8088 87.4357 26.8088C87.9825 26.8088 88.584 26.8635 89.1308 26.9182L92.357 28.7774V27.0275H96.9502V45.4557H92.357V43.7605L89.1308 45.5651C88.584 45.6744 87.9825 45.7291 87.4357 45.7291C84.8109 45.7291 82.569 44.7995 80.7098 42.9403C78.9054 41.1357 77.9758 38.8937 77.9758 36.269ZM83.9907 32.7693C83.0065 33.7535 82.569 34.9019 82.569 36.2143C82.569 37.5814 83.0611 38.7297 83.9907 39.6593C84.975 40.5889 86.1233 41.0811 87.4357 41.0811C88.8027 41.0811 89.951 40.5889 90.8806 39.6593C91.8649 38.7297 92.3023 37.5814 92.3023 36.2143C92.3023 34.8472 91.8102 33.6989 90.8806 32.7693C89.8963 31.785 88.748 31.3475 87.4357 31.3475C86.1233 31.3475 84.975 31.8396 83.9907 32.7693Z" fill="#031E71"/>
<path d="M117.018 29.543C118.877 31.4022 119.807 33.6442 119.807 36.269C119.807 38.8938 118.877 41.1358 117.018 42.995C115.159 44.8542 112.917 45.7838 110.292 45.7838C109.746 45.7838 109.144 45.7291 108.597 45.6198L105.371 43.8152V51.1974H100.778V27.0276H105.371V28.7774L108.597 26.9182C109.144 26.8088 109.746 26.8088 110.292 26.8088C112.917 26.7541 115.159 27.6838 117.018 29.543ZM113.737 39.714C114.722 38.7844 115.159 37.6361 115.159 36.269C115.159 34.9019 114.667 33.7536 113.737 32.824C112.753 31.8397 111.605 31.4022 110.292 31.4022C108.925 31.4022 107.777 31.8943 106.848 32.824C105.863 33.8083 105.426 34.9566 105.426 36.269C105.426 37.6361 105.918 38.7844 106.848 39.714C107.832 40.6436 108.98 41.1358 110.292 41.1358C111.66 41.1358 112.808 40.6436 113.737 39.714Z" fill="#031E71"/>
<path d="M131.454 40.5343C131.454 40.4249 131.454 40.3155 131.345 40.1515C131.29 40.0421 131.126 39.8781 130.962 39.7687C130.798 39.6593 130.579 39.4953 130.415 39.3859C130.251 39.2766 130.033 39.1125 129.759 39.0031C129.486 38.8391 129.267 38.7297 129.103 38.675C128.939 38.5657 128.775 38.511 128.501 38.3469C128.283 38.2376 128.119 38.1829 128.119 38.1829C128.119 38.1829 127.955 38.0735 127.681 37.9642C127.408 37.8548 127.244 37.8001 127.134 37.7454C127.025 37.6907 126.861 37.6361 126.588 37.5267C126.314 37.4173 126.15 37.308 126.041 37.2533C125.931 37.1986 125.767 37.0892 125.494 36.9799C125.275 36.8705 125.057 36.7611 124.947 36.6518C124.838 36.5424 124.674 36.4877 124.455 36.3237C124.236 36.2143 124.127 36.1049 123.963 35.9956C123.854 35.8862 123.689 35.7768 123.58 35.6675C123.471 35.5581 123.307 35.4487 123.252 35.3394C122.268 34.1364 121.94 32.7693 122.213 31.3475C122.432 30.3085 122.869 29.4336 123.58 28.7227C124.291 28.0119 125.111 27.5197 126.041 27.1916C126.97 26.9182 127.955 26.7542 128.994 26.7542C130.306 26.7542 131.564 27.0276 132.767 27.6291C133.97 28.2306 135.009 29.0508 135.829 30.0898L132.22 33.1521C131.29 31.949 130.197 31.2928 128.939 31.2382C128.337 31.1835 127.845 31.2382 127.462 31.4569C127.134 31.6209 126.97 31.785 126.97 32.0037C126.97 32.1131 126.97 32.2224 127.08 32.3865C127.189 32.5505 127.298 32.6599 127.462 32.7693C127.627 32.8786 127.845 33.0427 128.064 33.1521C128.337 33.2614 128.501 33.3708 128.72 33.4802C128.884 33.5348 129.103 33.6442 129.322 33.7536C129.54 33.8629 129.65 33.9176 129.704 33.9176C129.978 34.027 130.306 34.2457 130.853 34.4645C131.345 34.6832 131.782 34.9019 132.056 35.0113C132.329 35.1753 132.712 35.3394 133.149 35.6128C133.587 35.8862 133.97 36.1049 134.243 36.3237C134.516 36.5424 134.79 36.8158 135.118 37.1439C135.446 37.472 135.665 37.8001 135.829 38.1282C135.993 38.4563 136.102 38.8391 136.157 39.3312C136.212 39.7687 136.266 40.2608 136.157 40.8077C136.047 41.9013 135.555 42.8309 134.79 43.5965C134.024 44.3621 133.149 44.9089 132.11 45.237C131.126 45.5651 130.087 45.7291 128.939 45.7291C127.572 45.7291 126.205 45.401 124.838 44.6902C123.471 44.034 122.377 43.159 121.448 42.0654L124.947 38.9485C126.588 40.5889 128.173 41.3545 129.65 41.1905C130.907 41.1905 131.4 40.917 131.454 40.5343Z" fill="#031E71"/>
<path d="M143.812 38.675C143.758 39.3312 143.812 39.878 144.031 40.3155C144.25 40.753 144.578 41.0811 145.015 41.2451C145.453 41.4092 146 41.5185 146.601 41.4639C147.203 41.4639 147.859 41.2998 148.57 41.0811V45.2917C146.492 45.7838 144.797 45.8385 143.539 45.4557C142.226 45.0729 141.188 44.362 140.367 43.3231C139.547 42.2841 139.164 41.0811 139.164 39.6593V22.7076H143.758V27.0275H148.57V31.0741H143.812V38.675Z" fill="#031E71"/>
<path d="M153.163 29.543C155.022 27.6838 157.264 26.7542 159.889 26.7542C162.513 26.7542 164.755 27.6838 166.614 29.543C168.474 31.4022 169.403 33.6442 169.403 36.269C169.403 38.8938 168.474 41.1358 166.614 42.995C164.755 44.8542 162.513 45.7838 159.889 45.7838C157.264 45.7838 155.022 44.8542 153.163 42.995C151.304 41.1358 150.374 38.8938 150.374 36.269C150.374 33.6442 151.304 31.4022 153.163 29.543ZM163.334 39.714C164.318 38.7844 164.755 37.6361 164.755 36.269C164.755 34.9019 164.263 33.7536 163.334 32.824C162.349 31.8397 161.201 31.4022 159.889 31.4022C158.522 31.4022 157.373 31.8944 156.444 32.824C155.459 33.8083 155.022 34.9566 155.022 36.269C155.022 37.6361 155.514 38.7844 156.444 39.714C157.428 40.6436 158.576 41.1358 159.889 41.1358C161.201 41.1358 162.349 40.6436 163.334 39.714Z" fill="#031E71"/>
<path d="M176.895 28.7774L180.23 26.8635C180.613 26.8088 180.996 26.8088 181.378 26.8088C183.019 26.8088 184.55 27.1916 185.917 28.0118C187.284 28.8321 188.432 29.9257 189.253 31.3475C190.073 32.7693 190.455 34.2457 190.455 35.8862V45.5104H185.808V35.8315C185.808 34.5738 185.37 33.5348 184.495 32.6599C183.62 31.785 182.581 31.3475 181.324 31.3475C180.066 31.3475 179.027 31.785 178.152 32.6599C177.277 33.5348 176.84 34.5738 176.84 35.8315V45.4557H172.247V27.0275H176.84V28.7774H176.895Z" fill="#031E71"/>
<path d="M195.76 29.543C197.619 27.6838 199.861 26.7542 202.485 26.7542C205.11 26.7542 207.352 27.6838 209.211 29.543C211.07 31.4022 212 33.6442 212 36.269C212 36.8158 211.945 37.3627 211.891 37.9095H197.947C198.275 38.8938 198.876 39.6593 199.697 40.2608C200.517 40.8624 201.501 41.1358 202.54 41.1358C204.181 41.1358 205.493 40.4796 206.477 39.1672H211.617C210.961 41.0811 209.867 42.6669 208.172 43.9246C206.532 45.1276 204.618 45.7838 202.54 45.7838C199.915 45.7838 197.673 44.8542 195.814 42.995C193.955 41.1358 193.026 38.8938 193.026 36.269C192.971 33.6442 193.9 31.4022 195.76 29.543ZM198.22 33.8629H206.751C206.313 33.0974 205.712 32.4959 204.946 32.0584C204.181 31.6209 203.36 31.4022 202.431 31.4022C201.556 31.4022 200.681 31.6209 199.915 32.0584C199.205 32.4959 198.658 33.0974 198.22 33.8629Z" fill="#031E71"/>
<path d="M21.2711 61.1497C24.6066 62.8996 28.2703 63.9932 32.2073 64.3213V53.3847C30.2935 53.1113 28.489 52.5098 26.7939 51.6349L21.2711 61.1497Z" fill="#329992"/>
<path d="M3.39025 36.9799L0 36.9252C0.328089 46.0572 3.71834 53.8769 10.2254 60.3842C11.8659 62.0247 13.6157 63.5011 15.4202 64.7588L17.2247 61.6419C9.18648 56.2283 3.8277 47.2603 3.39025 36.9799Z" fill="#329992"/>
<path d="M5.85089 37.0345C6.01494 40.0421 6.56175 42.8856 7.54602 45.5651L17.8261 41.1904C17.4434 39.9327 17.17 38.675 17.0059 37.3079L5.85089 37.0345Z" fill="#329992"/>
<path d="M18.4823 59.5092L24.0052 49.9397C22.146 48.518 20.6149 46.7681 19.3572 44.6901C19.2479 44.5261 19.1932 44.362 19.0838 44.198L8.80371 48.5726C11.0457 53.002 14.3812 56.7751 18.4823 59.5092Z" fill="#FDC609"/>
<path d="M22.31 7.06827L21.0524 3.34982C17.1153 5.045 13.5063 7.50573 10.2254 10.7867C8.09287 12.9193 6.28838 15.216 4.81198 17.6768L7.98351 19.4813C11.3191 14.013 16.2951 9.63836 22.31 7.06827Z" fill="#329992"/>
<path d="M18.2089 66.454C22.474 68.8054 27.122 70.1724 32.2073 70.5552V66.7821C27.8328 66.454 23.7317 65.251 20.0681 63.2824L18.2089 66.454Z" fill="#329992"/>
<path d="M35.7617 53.5488V58.0328C41.9407 57.7047 47.4635 54.8065 51.2912 50.4865L48.3384 47.7524C44.9481 51.4708 40.7377 53.3847 35.7617 53.5488Z" fill="#329992"/>
<path d="M35.4336 60.4389V70.6646C40.2456 70.6099 44.8388 69.5709 49.2133 67.6023C53.6972 65.5791 57.5796 62.7902 60.8058 59.2905L53.041 52.127C48.7212 57.0485 42.4328 60.2201 35.4336 60.4389Z" fill="#FDC609"/>
<path d="M12.0299 25.4964L3.28089 20.5203C1.36704 24.5668 0.273413 28.9414 0.0546875 33.6442L9.84267 33.9176C10.1161 30.91 10.8269 28.1212 12.0299 25.4964Z" fill="#329992"/>
<path d="M25.755 15.2707C18.4276 18.497 13.0689 25.4964 12.3033 33.7536L17.0059 33.9176C17.3887 29.6523 19.0838 25.9886 22.2007 22.817C23.7317 21.2859 25.4269 20.1375 27.1767 19.2626L25.755 15.2707Z" fill="#FDC609"/>
<path d="M10.1161 20.6843L13.6157 22.6529C16.2404 18.5517 19.9587 15.216 24.3879 13.1927L23.0756 9.36493C17.6074 11.7163 13.1236 15.7628 10.1161 20.6843Z" fill="#329992"/>
<path d="M51.1272 20.8484C47.0261 16.3097 41.1205 13.4115 34.5587 13.4115C32.3168 13.4115 30.1295 13.7942 28.0516 14.3958L29.4733 18.3329C31.2231 17.7861 33.0276 17.5127 34.9962 17.5127C40.3003 17.5127 44.7841 19.4813 48.3384 23.3638L51.1272 20.8484Z" fill="#329992"/>
<path d="M52.9317 19.2079L60.8605 11.935C57.6343 8.38064 53.7519 5.5918 49.268 3.56853C47.8463 2.91234 46.3699 2.42019 44.8935 1.98273L42.1047 12.1538C46.3152 13.4662 50.0335 15.9816 52.9317 19.2079Z" fill="#329992"/>
<path d="M34.5587 10.9507C36.0351 10.9507 37.5115 11.1148 38.9332 11.3335L41.7219 1.16249C39.5347 0.779706 37.2927 0.560974 34.9961 0.560974C31.1684 0.560974 27.5048 1.1078 24.1145 2.20146L27.4501 12.0444C29.692 11.3335 32.098 10.9507 34.5587 10.9507Z" fill="#FDC609"/>
</g>
<defs>
<clipPath id="clip0_2_3">
<rect width="212" height="70.1036" fill="white" transform="translate(0 0.560974)"/>
</clipPath>
</defs>
</svg>
